<?xml version="1.0" encoding="utf-8"?>
<!-- Generator: Adobe Illustrator 24.0.3, SVG Export Plug-In . SVG Version: 6.00 Build 0)  -->
<svg version="1.1" id="Layer_1" xmlns="http://www.w3.org/2000/svg" xmlns:xlink="http://www.w3.org/1999/xlink" x="0px" y="0px"
	 viewBox="0 0 84.23 84.31" style="enable-background:new 0 0 84.23 84.31;" xml:space="preserve">
<style type="text/css">
	.st0{fill:#8A8A8A;}
</style>
<path class="st0" d="M84.23,42.16c0-23.02-18.44-41.73-41.34-42.15C19.11-0.42-0.4,19.11,0.01,42.89
	C0.4,65.83,19.1,84.31,42.11,84.31c0.25,0,0.49-0.01,0.74-0.01V51.49h-9.07V40.93h8.91v-7.78c0-9.02,5.53-13.93,13.61-13.93
	c3.87,0,7.19,0.29,8.16,0.42v9.42h-5.52c-4.36,0-5.2,2.08-5.2,5.13v6.74h10.44l-1.36,10.55h-9.08v31.2
	C71.34,77.63,84.23,61.4,84.23,42.16L84.23,42.16z"/>
</svg>
