<?xml version="1.0" encoding="utf-8"?>
<!-- Generator: Adobe Illustrator 24.0.3, SVG Export Plug-In . SVG Version: 6.00 Build 0)  -->
<svg version="1.1" id="Layer_1" xmlns="http://www.w3.org/2000/svg" xmlns:xlink="http://www.w3.org/1999/xlink" x="0px" y="0px"
	 viewBox="0 0 84.44 84.44" style="enable-background:new 0 0 84.44 84.44;" xml:space="preserve">
<style type="text/css">
	.st0{fill:#8A8A8A;}
</style>
<g>
	<circle class="st0" cx="42.22" cy="42.22" r="8.08"/>
	<path class="st0" d="M61.12,27.92c-0.39-1.05-1.01-2.01-1.81-2.79c-0.78-0.81-1.73-1.42-2.79-1.81c-0.85-0.33-2.14-0.73-4.5-0.83
		c-2.56-0.12-3.32-0.14-9.8-0.14c-6.47,0-7.24,0.02-9.8,0.14c-2.36,0.11-3.65,0.5-4.5,0.83c-1.05,0.39-2.01,1.01-2.79,1.81
		c-0.81,0.78-1.42,1.73-1.81,2.79c-0.33,0.85-0.73,2.14-0.83,4.5c-0.12,2.56-0.14,3.32-0.14,9.8c0,6.47,0.03,7.24,0.14,9.8
		c0.11,2.36,0.5,3.65,0.83,4.5c0.39,1.05,1.01,2.01,1.81,2.79c0.78,0.81,1.73,1.42,2.79,1.81c0.85,0.33,2.14,0.73,4.5,0.83
		c2.56,0.12,3.32,0.14,9.8,0.14c6.47,0,7.24-0.02,9.8-0.14c2.36-0.11,3.65-0.5,4.5-0.83c2.11-0.82,3.79-2.49,4.6-4.6
		c0.33-0.85,0.73-2.14,0.83-4.5c0.12-2.56,0.14-3.32,0.14-9.8c0-6.47-0.02-7.24-0.14-9.8C61.85,30.06,61.45,28.78,61.12,27.92z
		 M42.22,54.67c-6.88,0-12.45-5.57-12.45-12.45c0-6.88,5.57-12.45,12.45-12.45c6.88,0,12.45,5.57,12.45,12.45
		C54.67,49.1,49.09,54.67,42.22,54.67z M55.16,32.19c-1.61,0-2.91-1.3-2.91-2.91s1.3-2.91,2.91-2.91c1.61,0,2.91,1.3,2.91,2.91
		C58.07,30.89,56.77,32.19,55.16,32.19z"/>
	<path class="st0" d="M42.22,0C18.91,0,0,18.91,0,42.22s18.91,42.22,42.22,42.22s42.22-18.91,42.22-42.22S65.53,0,42.22,0z
		 M66.32,52.21c-0.12,2.58-0.53,4.34-1.13,5.88c-1.26,3.26-3.83,5.83-7.09,7.09c-1.54,0.6-3.3,1.01-5.88,1.13
		c-2.59,0.12-3.41,0.15-9.99,0.15c-6.58,0-7.41-0.03-10-0.15c-2.58-0.12-4.34-0.53-5.88-1.13c-1.62-0.61-3.08-1.56-4.29-2.8
		c-1.23-1.21-2.19-2.68-2.8-4.29c-0.6-1.54-1.01-3.3-1.13-5.88c-0.12-2.59-0.15-3.41-0.15-10c0-6.58,0.03-7.41,0.15-9.99
		c0.12-2.58,0.53-4.34,1.13-5.88c0.61-1.62,1.56-3.08,2.8-4.29c1.21-1.23,2.68-2.19,4.29-2.8c1.54-0.6,3.3-1.01,5.89-1.13
		c2.59-0.12,3.41-0.15,9.99-0.15s7.41,0.03,9.99,0.15c2.58,0.12,4.34,0.53,5.89,1.13c1.62,0.61,3.08,1.56,4.29,2.8
		c1.23,1.21,2.19,2.68,2.8,4.29c0.6,1.54,1.01,3.3,1.13,5.88c0.12,2.59,0.15,3.41,0.15,9.99C66.46,48.8,66.43,49.63,66.32,52.21z"/>
</g>
</svg>
