<?xml version="1.0" encoding="utf-8"?>
<!-- Generator: Adobe Illustrator 24.0.3, SVG Export Plug-In . SVG Version: 6.00 Build 0)  -->
<svg version="1.1" id="Layer_1" xmlns="http://www.w3.org/2000/svg" xmlns:xlink="http://www.w3.org/1999/xlink" x="0px" y="0px"
	 viewBox="0 0 84.44 84.44" style="enable-background:new 0 0 84.44 84.44;" xml:space="preserve">
<style type="text/css">
	.st0{fill:#8A8A8A;}
</style>
<g>
	<path class="st0" d="M42.22,0C18.91,0,0,18.91,0,42.22s18.91,42.22,42.22,42.22s42.22-18.91,42.22-42.22S65.53,0,42.22,0L42.22,0z
		 M61.5,32.86c0.02,0.42,0.03,0.83,0.03,1.25c0,12.81-9.75,27.57-27.57,27.57h0h0c-5.47,0-10.57-1.6-14.85-4.35
		c0.76,0.09,1.53,0.13,2.31,0.13c4.54,0,8.72-1.55,12.04-4.15c-4.24-0.08-7.82-2.88-9.05-6.73c0.59,0.11,1.2,0.18,1.82,0.18
		c0.88,0,1.74-0.12,2.56-0.34c-4.43-0.89-7.77-4.81-7.77-9.5c0-0.04,0-0.08,0-0.12c1.31,0.73,2.8,1.16,4.39,1.21
		c-2.6-1.74-4.31-4.7-4.31-8.07c0-1.78,0.48-3.44,1.31-4.87c4.78,5.86,11.92,9.72,19.97,10.13c-0.17-0.71-0.25-1.45-0.25-2.21
		c0-5.35,4.34-9.69,9.69-9.69c2.79,0,5.31,1.18,7.07,3.06c2.21-0.44,4.28-1.24,6.15-2.35c-0.72,2.26-2.26,4.16-4.26,5.36
		c1.96-0.23,3.83-0.75,5.56-1.53C65.03,29.78,63.39,31.49,61.5,32.86L61.5,32.86z M61.5,32.92"/>
</g>
</svg>
